<svg version="1.1" viewBox="0.0 0.0 100.0 100.0" fill="none" stroke="none" stroke-linecap="square" stroke-miterlimit="10" xmlns:xlink="http://www.w3.org/1999/xlink" xmlns="http://www.w3.org/2000/svg"><clipPath id="p.0"><path d="m0 0l100.0 0l0 100.0l-100.0 0l0 -100.0z" clip-rule="nonzero"/></clipPath><g clip-path="url(#p.0)"><path fill="#000000" fill-opacity="0.0" d="m0 0l100.0 0l0 100.0l-100.0 0z" fill-rule="evenodd"/><path fill="#0088ff" d="m0 12.296l0 0c0 -6.7908926 5.505107 -12.296 12.296 -12.296l75.408005 0c3.2611008 0 6.3886337 1.2954677 8.69458 3.601415c2.3059464 2.3059475 3.6014175 5.433483 3.6014175 8.694585l0 75.56548c0 6.7908936 -5.505104 12.295998 -12.295998 12.295998l-75.408005 0c-6.7908926 0 -12.296 -5.505104 -12.296 -12.295998z" fill-rule="evenodd"/><path fill="#000000" fill-opacity="0.0" d="m2.703412 -6.2440944l100.0 0l0 108.28346l-100.0 0z" fill-rule="evenodd"/><path fill="#ffffff" d="m45.000286 39.780907q0 6.765625 -4.234375 10.0625q-4.21875 3.296875 -11.843748 3.296875l-10.5625 0l0 20.015625l-4.906251 0l0 -46.71875l15.406251 0q7.687498 0 11.906248 3.34375q4.234375 3.34375 4.234375 10.0zm-4.90625 0q0 -4.828125 -3.046875 -6.984375q-3.03125 -2.171875 -8.124998 -2.171875l-10.5625 0l0 18.328125l10.5625 0q5.093748 0 8.124998 -2.15625q3.046875 -2.171875 3.046875 -7.015625zm45.295338 21.125q-1.828125 6.015625 -5.984375 9.546875q-4.140625 3.53125 -10.453125 3.53125q-4.90625 0 -8.312504 -2.015625q-3.390625 -2.03125 -5.5625 -5.359375q-2.15625 -3.328125 -3.109375 -7.703125q-0.953125 -4.375 -0.953125 -9.0625q0 -4.6875 0.953125 -9.046875q0.953125 -4.375 3.109375 -7.734375q2.171875 -3.375 5.5625 -5.390625q3.4062538 -2.03125 8.312504 -2.03125q4.328125 0 7.40625 1.546875q3.09375 1.53125 4.5625 4.6875l0 -5.4375l4.1875 0l0 15.3125l-4.1875 0q0 -2.46875 -0.953125 -4.671875q-0.953125 -2.203125 -2.5625 -3.8125q-1.609375 -1.609375 -3.8125 -2.515625q-2.203125 -0.921875 -4.640625 -0.921875q-3.796875 0 -6.281254 1.796875q-2.484375 1.78125 -4.0 4.6875q-1.5 2.90625 -2.125 6.453125q-0.625 3.53125 -0.625 7.078125q0 3.515625 0.625 7.078125q0.625 3.5625 2.125 6.40625q1.515625 2.84375 4.0 4.65625q2.4843788 1.8125 6.281254 1.8125q8.734375 0 12.171875 -10.5625l4.265625 1.671875z" fill-rule="nonzero"/></g></svg>